<?xml version="1.0" encoding="utf-8"?>
<!-- Generator: Adobe Illustrator 18.0.0, SVG Export Plug-In . SVG Version: 6.00 Build 0)  -->
<!DOCTYPE svg PUBLIC "-//W3C//DTD SVG 1.1//EN" "http://www.w3.org/Graphics/SVG/1.1/DTD/svg11.dtd">
<svg version="1.1" id="Layer_1" xmlns="http://www.w3.org/2000/svg" xmlns:xlink="http://www.w3.org/1999/xlink" x="0px" y="0px"
	 viewBox="0 0 569 120" enable-background="new 0 0 569 120" xml:space="preserve">
<g>
	<defs>
		<rect id="SVGID_1_" x="-1" y="-1" width="572" height="121"/>
	</defs>
	<clipPath id="SVGID_2_">
		<use xlink:href="#SVGID_1_"  overflow="visible"/>
	</clipPath>
	<rect x="21" clip-path="url(#SVGID_2_)" fill="#FFFFFF" width="21.6" height="8"/>
	<rect x="42.6" clip-path="url(#SVGID_2_)" fill="#FFFFFF" width="21.6" height="8"/>
	<rect x="64.2" clip-path="url(#SVGID_2_)" fill="#FFFFFF" width="21.6" height="8"/>
	<rect x="85.8" clip-path="url(#SVGID_2_)" fill="#FFFFFF" width="21.6" height="8"/>
	<rect x="107.4" clip-path="url(#SVGID_2_)" fill="#FFFFFF" width="21.6" height="8"/>
	<rect x="129" clip-path="url(#SVGID_2_)" fill="#FFFFFF" width="21.6" height="8"/>
	<rect x="150.6" clip-path="url(#SVGID_2_)" fill="#FFFFFF" width="21.6" height="8"/>
	<rect x="172.2" clip-path="url(#SVGID_2_)" fill="#FFFFFF" width="21.6" height="8"/>
	<rect x="193.8" clip-path="url(#SVGID_2_)" fill="#FFFFFF" width="21.6" height="8"/>
	<rect x="215.4" clip-path="url(#SVGID_2_)" fill="#FFFFFF" width="21.6" height="8"/>
	<rect x="237" clip-path="url(#SVGID_2_)" fill="#FFFFFF" width="21.6" height="8"/>
	<rect x="258.6" clip-path="url(#SVGID_2_)" fill="#FFFFFF" width="21.6" height="8"/>
	<rect x="280.2" clip-path="url(#SVGID_2_)" fill="#FFFFFF" width="21.6" height="8"/>
	<rect x="301.8" clip-path="url(#SVGID_2_)" fill="#FFFFFF" width="21.6" height="8"/>
	<rect x="323.4" clip-path="url(#SVGID_2_)" fill="#FFFFFF" width="21.6" height="8"/>
	<rect x="345" clip-path="url(#SVGID_2_)" fill="#FFFFFF" width="21.6" height="8"/>
	<rect x="366.6" clip-path="url(#SVGID_2_)" fill="#FFFFFF" width="21.6" height="8"/>
	<rect x="388.2" clip-path="url(#SVGID_2_)" fill="#FFFFFF" width="21.6" height="8"/>
	<rect x="409.8" clip-path="url(#SVGID_2_)" fill="#FFFFFF" width="21.6" height="8"/>
	<rect x="431.4" clip-path="url(#SVGID_2_)" fill="#FFFFFF" width="21.6" height="8"/>
	<rect x="453" clip-path="url(#SVGID_2_)" fill="#FFFFFF" width="21.6" height="8"/>
	<rect x="474.6" clip-path="url(#SVGID_2_)" fill="#FFFFFF" width="21.6" height="8"/>
	<rect x="496.2" clip-path="url(#SVGID_2_)" fill="#FFFFFF" width="21.6" height="8"/>
	<rect x="517.8" clip-path="url(#SVGID_2_)" fill="#FFFFFF" width="21.6" height="8"/>
	<rect x="539.4" clip-path="url(#SVGID_2_)" fill="#FFFFFF" width="21.6" height="8"/>
	<rect x="561" clip-path="url(#SVGID_2_)" fill="#FFFFFF" width="8" height="8"/>
	<rect x="21" y="8" clip-path="url(#SVGID_2_)" fill="#367DA2" width="21.6" height="22"/>
	<rect x="42.6" y="8" clip-path="url(#SVGID_2_)" fill="#6EC038" width="21.6" height="22"/>
	<rect x="64.2" y="8" clip-path="url(#SVGID_2_)" fill="#6EC038" width="21.6" height="22"/>
	<rect x="85.8" y="8" clip-path="url(#SVGID_2_)" fill="#6EC038" width="21.6" height="22"/>
	<rect x="107.4" y="8" clip-path="url(#SVGID_2_)" fill="#EC9F2E" width="21.6" height="22"/>
	<rect x="129" y="8" clip-path="url(#SVGID_2_)" fill="#EC9F2E" width="21.6" height="22"/>
	<rect x="150.6" y="8" clip-path="url(#SVGID_2_)" fill="#EC9F2E" width="21.6" height="22"/>
	<rect x="172.2" y="8" clip-path="url(#SVGID_2_)" fill="#EC9F2E" width="21.6" height="22"/>
	<rect x="193.8" y="8" clip-path="url(#SVGID_2_)" fill="#EC9F2E" width="21.6" height="22"/>
	<rect x="215.4" y="8" clip-path="url(#SVGID_2_)" fill="#6EC038" width="21.6" height="22"/>
	<rect x="237" y="8" clip-path="url(#SVGID_2_)" fill="#6EC038" width="21.6" height="22"/>
	<rect x="258.6" y="8" clip-path="url(#SVGID_2_)" fill="#6EC038" width="21.6" height="22"/>
	<rect x="280.2" y="8" clip-path="url(#SVGID_2_)" fill="#6EC038" width="21.6" height="22"/>
	<rect x="301.8" y="8" clip-path="url(#SVGID_2_)" fill="#6EC038" width="21.6" height="22"/>
	<rect x="323.4" y="8" clip-path="url(#SVGID_2_)" fill="#9D45B8" width="21.6" height="22"/>
	<rect x="345" y="8" clip-path="url(#SVGID_2_)" fill="#FFFFFF" width="21.6" height="22"/>
	<rect x="366.6" y="8" clip-path="url(#SVGID_2_)" fill="#FFFFFF" width="21.6" height="22"/>
	<rect x="388.2" y="8" clip-path="url(#SVGID_2_)" fill="#FFFFFF" width="21.6" height="22"/>
	<rect x="409.8" y="8" clip-path="url(#SVGID_2_)" fill="#FFFFFF" width="21.6" height="22"/>
	<rect x="431.4" y="8" clip-path="url(#SVGID_2_)" fill="#FFFFFF" width="21.6" height="22"/>
	<rect x="453" y="8" clip-path="url(#SVGID_2_)" fill="#FFFFFF" width="21.6" height="22"/>
	<rect x="474.6" y="8" clip-path="url(#SVGID_2_)" fill="#FFFFFF" width="21.6" height="22"/>
	<rect x="496.2" y="8" clip-path="url(#SVGID_2_)" fill="#FFFFFF" width="21.6" height="22"/>
	<rect x="517.8" y="8" clip-path="url(#SVGID_2_)" fill="#FFFFFF" width="21.6" height="22"/>
	<rect x="539.4" y="8" clip-path="url(#SVGID_2_)" fill="#FFFFFF" width="21.6" height="22"/>
	<rect x="561" y="8" clip-path="url(#SVGID_2_)" fill="#FFFFFF" width="8" height="22"/>
	<rect x="21" y="30" clip-path="url(#SVGID_2_)" fill="#FFFFFF" width="21.6" height="22"/>
	<rect x="42.6" y="30" clip-path="url(#SVGID_2_)" fill="#367DA2" width="21.6" height="22"/>
	<rect x="64.2" y="30" clip-path="url(#SVGID_2_)" fill="#F1D130" width="21.6" height="22"/>
	<rect x="85.8" y="30" clip-path="url(#SVGID_2_)" fill="#F1D130" width="21.6" height="22"/>
	<rect x="107.4" y="30" clip-path="url(#SVGID_2_)" fill="#6EC038" width="21.6" height="22"/>
	<rect x="129" y="30" clip-path="url(#SVGID_2_)" fill="#6C2085" width="21.6" height="22"/>
	<rect x="150.6" y="30" clip-path="url(#SVGID_2_)" fill="#FFFFFF" width="21.6" height="22"/>
	<rect x="172.2" y="30" clip-path="url(#SVGID_2_)" fill="#FFFFFF" width="21.6" height="22"/>
	<rect x="193.8" y="30" clip-path="url(#SVGID_2_)" fill="#FFFFFF" width="21.6" height="22"/>
	<rect x="215.4" y="30" clip-path="url(#SVGID_2_)" fill="#FFFFFF" width="21.6" height="22"/>
	<rect x="237" y="30" clip-path="url(#SVGID_2_)" fill="#FFFFFF" width="21.6" height="22"/>
	<rect x="258.6" y="30" clip-path="url(#SVGID_2_)" fill="#FFFFFF" width="21.6" height="22"/>
	<rect x="280.2" y="30" clip-path="url(#SVGID_2_)" fill="#FFFFFF" width="21.6" height="22"/>
	<rect x="301.8" y="30" clip-path="url(#SVGID_2_)" fill="#FFFFFF" width="21.6" height="22"/>
	<rect x="323.4" y="30" clip-path="url(#SVGID_2_)" fill="#FFFFFF" width="21.6" height="22"/>
	<rect x="345" y="30" clip-path="url(#SVGID_2_)" fill="#FFFFFF" width="21.6" height="22"/>
	<rect x="366.6" y="30" clip-path="url(#SVGID_2_)" fill="#FFFFFF" width="21.6" height="22"/>
	<rect x="388.2" y="30" clip-path="url(#SVGID_2_)" fill="#FFFFFF" width="21.6" height="22"/>
	<rect x="409.8" y="30" clip-path="url(#SVGID_2_)" fill="#FFFFFF" width="21.6" height="22"/>
	<rect x="431.4" y="30" clip-path="url(#SVGID_2_)" fill="#FFFFFF" width="21.6" height="22"/>
	<rect x="453" y="30" clip-path="url(#SVGID_2_)" fill="#FFFFFF" width="21.6" height="22"/>
	<rect x="474.6" y="30" clip-path="url(#SVGID_2_)" fill="#FFFFFF" width="21.6" height="22"/>
	<rect x="496.2" y="30" clip-path="url(#SVGID_2_)" fill="#FFFFFF" width="21.6" height="22"/>
	<rect x="517.8" y="30" clip-path="url(#SVGID_2_)" fill="#FFFFFF" width="21.6" height="22"/>
	<rect x="539.4" y="30" clip-path="url(#SVGID_2_)" fill="#FFFFFF" width="21.6" height="22"/>
	<rect x="561" y="30" clip-path="url(#SVGID_2_)" fill="#FFFFFF" width="8" height="22"/>
	<rect x="21" y="52" clip-path="url(#SVGID_2_)" fill="#FFFFFF" width="21.6" height="22"/>
	<rect x="42.6" y="52" clip-path="url(#SVGID_2_)" fill="#FFFFFF" width="21.6" height="22"/>
	<rect x="64.2" y="52" clip-path="url(#SVGID_2_)" fill="#367DA2" width="21.6" height="22"/>
	<rect x="85.8" y="52" clip-path="url(#SVGID_2_)" fill="#F1D130" width="21.6" height="22"/>
	<rect x="107.4" y="52" clip-path="url(#SVGID_2_)" fill="#F1D130" width="21.6" height="22"/>
	<rect x="129" y="52" clip-path="url(#SVGID_2_)" fill="#F1D130" width="21.6" height="22"/>
	<rect x="150.6" y="52" clip-path="url(#SVGID_2_)" fill="#6EC038" width="21.6" height="22"/>
	<rect x="172.2" y="52" clip-path="url(#SVGID_2_)" fill="#CF232B" width="21.6" height="22"/>
	<rect x="193.8" y="52" clip-path="url(#SVGID_2_)" fill="#CF232B" width="21.6" height="22"/>
	<rect x="215.4" y="52" clip-path="url(#SVGID_2_)" fill="#EC9F2E" width="21.6" height="22"/>
	<rect x="237" y="52" clip-path="url(#SVGID_2_)" fill="#EC9F2E" width="21.6" height="22"/>
	<rect x="258.6" y="52" clip-path="url(#SVGID_2_)" fill="#EC9F2E" width="21.6" height="22"/>
	<rect x="280.2" y="52" clip-path="url(#SVGID_2_)" fill="#EC9F2E" width="21.6" height="22"/>
	<rect x="301.8" y="52" clip-path="url(#SVGID_2_)" fill="#EC9F2E" width="21.6" height="22"/>
	<rect x="323.4" y="52" clip-path="url(#SVGID_2_)" fill="#F1D130" width="21.6" height="22"/>
	<rect x="345" y="52" clip-path="url(#SVGID_2_)" fill="#6EC038" width="21.6" height="22"/>
	<rect x="366.6" y="52" clip-path="url(#SVGID_2_)" fill="#6EC038" width="21.6" height="22"/>
	<rect x="388.2" y="52" clip-path="url(#SVGID_2_)" fill="#6EC038" width="21.6" height="22"/>
	<rect x="409.8" y="52" clip-path="url(#SVGID_2_)" fill="#9D45B8" width="21.6" height="22"/>
	<rect x="431.4" y="52" clip-path="url(#SVGID_2_)" fill="#FFFFFF" width="21.6" height="22"/>
	<rect x="453" y="52" clip-path="url(#SVGID_2_)" fill="#FFFFFF" width="21.6" height="22"/>
	<rect x="474.6" y="52" clip-path="url(#SVGID_2_)" fill="#FFFFFF" width="21.6" height="22"/>
	<rect x="496.2" y="52" clip-path="url(#SVGID_2_)" fill="#FFFFFF" width="21.6" height="22"/>
	<rect x="517.8" y="52" clip-path="url(#SVGID_2_)" fill="#FFFFFF" width="21.6" height="22"/>
	<rect x="539.4" y="52" clip-path="url(#SVGID_2_)" fill="#FFFFFF" width="21.6" height="22"/>
	<rect x="561" y="52" clip-path="url(#SVGID_2_)" fill="#FFFFFF" width="8" height="22"/>
	<rect x="21" y="74" clip-path="url(#SVGID_2_)" fill="#FFFFFF" width="21.6" height="22.5"/>
	<rect x="42.6" y="74" clip-path="url(#SVGID_2_)" fill="#FFFFFF" width="21.6" height="22.5"/>
	<rect x="64.2" y="74" clip-path="url(#SVGID_2_)" fill="#FFFFFF" width="21.6" height="22.5"/>
	<rect x="85.8" y="74" clip-path="url(#SVGID_2_)" fill="#367DA2" width="21.6" height="22.5"/>
	<rect x="107.4" y="74" clip-path="url(#SVGID_2_)" fill="#F1D130" width="21.6" height="22.5"/>
	<rect x="129" y="74" clip-path="url(#SVGID_2_)" fill="#F1D130" width="21.6" height="22.5"/>
	<rect x="150.6" y="74" clip-path="url(#SVGID_2_)" fill="#F1D130" width="21.6" height="22.5"/>
	<rect x="172.2" y="74" clip-path="url(#SVGID_2_)" fill="#F1D130" width="21.6" height="22.5"/>
	<rect x="193.8" y="74" clip-path="url(#SVGID_2_)" fill="#F1D130" width="21.6" height="22.5"/>
	<rect x="215.4" y="74" clip-path="url(#SVGID_2_)" fill="#F1D130" width="21.6" height="22.5"/>
	<rect x="237" y="74" clip-path="url(#SVGID_2_)" fill="#F1D130" width="21.6" height="22.5"/>
	<rect x="258.6" y="74" clip-path="url(#SVGID_2_)" fill="#F1D130" width="21.6" height="22.5"/>
	<rect x="280.2" y="74" clip-path="url(#SVGID_2_)" fill="#F1D130" width="21.6" height="22.5"/>
	<rect x="301.8" y="74" clip-path="url(#SVGID_2_)" fill="#F1D130" width="21.6" height="22.5"/>
	<rect x="323.4" y="74" clip-path="url(#SVGID_2_)" fill="#F1D130" width="21.6" height="22.5"/>
	<rect x="345" y="74" clip-path="url(#SVGID_2_)" fill="#F1D130" width="21.6" height="22.5"/>
	<rect x="366.6" y="74" clip-path="url(#SVGID_2_)" fill="#F1D130" width="21.6" height="22.5"/>
	<rect x="388.2" y="74" clip-path="url(#SVGID_2_)" fill="#F1D130" width="21.6" height="22.5"/>
	<rect x="409.8" y="74" clip-path="url(#SVGID_2_)" fill="#F1D130" width="21.6" height="22.5"/>
	<rect x="431.4" y="74" clip-path="url(#SVGID_2_)" fill="#6EC038" width="21.6" height="22.5"/>
	<rect x="453" y="74" clip-path="url(#SVGID_2_)" fill="#6EC038" width="21.6" height="22.5"/>
	<rect x="474.6" y="74" clip-path="url(#SVGID_2_)" fill="#6EC038" width="21.6" height="22.5"/>
	<rect x="496.2" y="74" clip-path="url(#SVGID_2_)" fill="#6EC038" width="21.6" height="22.5"/>
	<rect x="517.8" y="74" clip-path="url(#SVGID_2_)" fill="#6EC038" width="21.6" height="22.5"/>
	<rect x="539.4" y="74" clip-path="url(#SVGID_2_)" fill="#9D45B8" width="21.6" height="22.5"/>
	<rect x="561" y="74" clip-path="url(#SVGID_2_)" fill="#FFFFFF" width="8" height="22.5"/>
</g>
<g>
	<defs>
		<rect id="SVGID_3_" y="8" width="20.5" height="22"/>
	</defs>
	<clipPath id="SVGID_4_">
		<use xlink:href="#SVGID_3_"  overflow="visible"/>
	</clipPath>
	<g clip-path="url(#SVGID_4_)">
		<text transform="matrix(1 0 0 1 4 23.5)" font-family="'CamingoCode-Bold'" font-size="10">P1</text>
	</g>
</g>
<g>
	<defs>
		<rect id="SVGID_5_" x="21.5" y="8" width="21.1" height="22"/>
	</defs>
	<clipPath id="SVGID_6_">
		<use xlink:href="#SVGID_5_"  overflow="visible"/>
	</clipPath>
	<g clip-path="url(#SVGID_6_)">
		<text transform="matrix(1 0 0 1 29.3 23.5)" fill="#FFFFFF" font-family="'CamingoCode-Bold'" font-size="10">n</text>
	</g>
</g>
<g>
	<defs>
		<rect id="SVGID_7_" x="42.6" y="8" width="21.6" height="22"/>
	</defs>
	<clipPath id="SVGID_8_">
		<use xlink:href="#SVGID_7_"  overflow="visible"/>
	</clipPath>
	<g clip-path="url(#SVGID_8_)">
		<text transform="matrix(1 0 0 1 50.65 23.5)" fill="#FFFFFF" font-family="'CamingoCode-Bold'" font-size="10">e</text>
	</g>
</g>
<g>
	<defs>
		<rect id="SVGID_9_" x="64.2" y="8" width="21.6" height="22"/>
	</defs>
	<clipPath id="SVGID_10_">
		<use xlink:href="#SVGID_9_"  overflow="visible"/>
	</clipPath>
	<g clip-path="url(#SVGID_10_)">
		<text transform="matrix(1 0 0 1 72.25 23.5)" fill="#FFFFFF" font-family="'CamingoCode-Bold'" font-size="10">e</text>
	</g>
</g>
<g>
	<defs>
		<rect id="SVGID_11_" x="85.8" y="8" width="21.6" height="22"/>
	</defs>
	<clipPath id="SVGID_12_">
		<use xlink:href="#SVGID_11_"  overflow="visible"/>
	</clipPath>
	<g clip-path="url(#SVGID_12_)">
		<text transform="matrix(1 0 0 1 93.85 23.5)" fill="#FFFFFF" font-family="'CamingoCode-Bold'" font-size="10">e</text>
	</g>
</g>
<g>
	<defs>
		<rect id="SVGID_13_" x="107.4" y="8" width="21.6" height="22"/>
	</defs>
	<clipPath id="SVGID_14_">
		<use xlink:href="#SVGID_13_"  overflow="visible"/>
	</clipPath>
	<g clip-path="url(#SVGID_14_)">
		<text transform="matrix(1 0 0 1 115.45 23.5)" fill="#FFFFFF" font-family="'CamingoCode-Bold'" font-size="10">w</text>
	</g>
</g>
<g>
	<defs>
		<rect id="SVGID_15_" x="129" y="8" width="21.6" height="22"/>
	</defs>
	<clipPath id="SVGID_16_">
		<use xlink:href="#SVGID_15_"  overflow="visible"/>
	</clipPath>
	<g clip-path="url(#SVGID_16_)">
		<text transform="matrix(1 0 0 1 137.05 23.5)" fill="#FFFFFF" font-family="'CamingoCode-Bold'" font-size="10">w</text>
	</g>
</g>
<g>
	<defs>
		<rect id="SVGID_17_" x="150.6" y="8" width="21.6" height="22"/>
	</defs>
	<clipPath id="SVGID_18_">
		<use xlink:href="#SVGID_17_"  overflow="visible"/>
	</clipPath>
	<g clip-path="url(#SVGID_18_)">
		<text transform="matrix(1 0 0 1 158.65 23.5)" fill="#FFFFFF" font-family="'CamingoCode-Bold'" font-size="10">w</text>
	</g>
</g>
<g>
	<defs>
		<rect id="SVGID_19_" x="172.2" y="8" width="21.6" height="22"/>
	</defs>
	<clipPath id="SVGID_20_">
		<use xlink:href="#SVGID_19_"  overflow="visible"/>
	</clipPath>
	<g clip-path="url(#SVGID_20_)">
		<text transform="matrix(1 0 0 1 180.25 23.5)" fill="#FFFFFF" font-family="'CamingoCode-Bold'" font-size="10">w</text>
	</g>
</g>
<g>
	<defs>
		<rect id="SVGID_21_" x="193.8" y="8" width="21.6" height="22"/>
	</defs>
	<clipPath id="SVGID_22_">
		<use xlink:href="#SVGID_21_"  overflow="visible"/>
	</clipPath>
	<g clip-path="url(#SVGID_22_)">
		<text transform="matrix(1 0 0 1 201.85 23.5)" fill="#FFFFFF" font-family="'CamingoCode-Bold'" font-size="10">w</text>
	</g>
</g>
<g>
	<defs>
		<rect id="SVGID_23_" x="215.4" y="8" width="21.6" height="22"/>
	</defs>
	<clipPath id="SVGID_24_">
		<use xlink:href="#SVGID_23_"  overflow="visible"/>
	</clipPath>
	<g clip-path="url(#SVGID_24_)">
		<text transform="matrix(1 0 0 1 223.45 23.5)" fill="#FFFFFF" font-family="'CamingoCode-Bold'" font-size="10">e</text>
	</g>
</g>
<g>
	<defs>
		<rect id="SVGID_25_" x="237" y="8" width="21.6" height="22"/>
	</defs>
	<clipPath id="SVGID_26_">
		<use xlink:href="#SVGID_25_"  overflow="visible"/>
	</clipPath>
	<g clip-path="url(#SVGID_26_)">
		<text transform="matrix(1 0 0 1 245.05 23.5)" fill="#FFFFFF" font-family="'CamingoCode-Bold'" font-size="10">e</text>
	</g>
</g>
<g>
	<defs>
		<rect id="SVGID_27_" x="258.6" y="8" width="21.6" height="22"/>
	</defs>
	<clipPath id="SVGID_28_">
		<use xlink:href="#SVGID_27_"  overflow="visible"/>
	</clipPath>
	<g clip-path="url(#SVGID_28_)">
		<text transform="matrix(1 0 0 1 266.65 23.5)" fill="#FFFFFF" font-family="'CamingoCode-Bold'" font-size="10">e</text>
	</g>
</g>
<g>
	<defs>
		<rect id="SVGID_29_" x="280.2" y="8" width="21.6" height="22"/>
	</defs>
	<clipPath id="SVGID_30_">
		<use xlink:href="#SVGID_29_"  overflow="visible"/>
	</clipPath>
	<g clip-path="url(#SVGID_30_)">
		<text transform="matrix(1 0 0 1 288.25 23.5)" fill="#FFFFFF" font-family="'CamingoCode-Bold'" font-size="10">e</text>
	</g>
</g>
<g>
	<defs>
		<rect id="SVGID_31_" x="301.8" y="8" width="21.6" height="22"/>
	</defs>
	<clipPath id="SVGID_32_">
		<use xlink:href="#SVGID_31_"  overflow="visible"/>
	</clipPath>
	<g clip-path="url(#SVGID_32_)">
		<text transform="matrix(1 0 0 1 309.85 23.5)" fill="#FFFFFF" font-family="'CamingoCode-Bold'" font-size="10">e</text>
	</g>
</g>
<g>
	<defs>
		<rect id="SVGID_33_" x="323.4" y="8" width="21.6" height="22"/>
	</defs>
	<clipPath id="SVGID_34_">
		<use xlink:href="#SVGID_33_"  overflow="visible"/>
	</clipPath>
	<g clip-path="url(#SVGID_34_)">
		<text transform="matrix(1 0 0 1 331.45 23.5)" fill="#FFFFFF" font-family="'CamingoCode-Bold'" font-size="10">t</text>
	</g>
</g>
<g>
	<defs>
		<rect id="SVGID_35_" y="30" width="20.5" height="22"/>
	</defs>
	<clipPath id="SVGID_36_">
		<use xlink:href="#SVGID_35_"  overflow="visible"/>
	</clipPath>
	<g clip-path="url(#SVGID_36_)">
		<text transform="matrix(1 0 0 1 4 45.5)" font-family="'CamingoCode-Bold'" font-size="10">P2</text>
	</g>
</g>
<g>
	<defs>
		<rect id="SVGID_37_" x="42.6" y="30" width="21.6" height="22"/>
	</defs>
	<clipPath id="SVGID_38_">
		<use xlink:href="#SVGID_37_"  overflow="visible"/>
	</clipPath>
	<g clip-path="url(#SVGID_38_)">
		<text transform="matrix(1 0 0 1 50.65 45.5)" fill="#FFFFFF" font-family="'CamingoCode-Bold'" font-size="10">n</text>
	</g>
</g>
<g>
	<defs>
		<rect id="SVGID_39_" x="64.2" y="30" width="21.6" height="22"/>
	</defs>
	<clipPath id="SVGID_40_">
		<use xlink:href="#SVGID_39_"  overflow="visible"/>
	</clipPath>
	<g clip-path="url(#SVGID_40_)">
		<text transform="matrix(1 0 0 1 72.25 45.5)" fill="#FFFFFF" font-family="'CamingoCode-Bold'" font-size="10">r</text>
	</g>
</g>
<g>
	<defs>
		<rect id="SVGID_41_" x="85.8" y="30" width="21.6" height="22"/>
	</defs>
	<clipPath id="SVGID_42_">
		<use xlink:href="#SVGID_41_"  overflow="visible"/>
	</clipPath>
	<g clip-path="url(#SVGID_42_)">
		<text transform="matrix(1 0 0 1 93.85 45.5)" fill="#FFFFFF" font-family="'CamingoCode-Bold'" font-size="10">r</text>
	</g>
</g>
<g>
	<defs>
		<rect id="SVGID_43_" x="107.4" y="30" width="21.6" height="22"/>
	</defs>
	<clipPath id="SVGID_44_">
		<use xlink:href="#SVGID_43_"  overflow="visible"/>
	</clipPath>
	<g clip-path="url(#SVGID_44_)">
		<text transform="matrix(1 0 0 1 115.45 45.5)" fill="#FFFFFF" font-family="'CamingoCode-Bold'" font-size="10">e</text>
	</g>
</g>
<g>
	<defs>
		<rect id="SVGID_45_" x="129" y="30" width="21.6" height="22"/>
	</defs>
	<clipPath id="SVGID_46_">
		<use xlink:href="#SVGID_45_"  overflow="visible"/>
	</clipPath>
	<g clip-path="url(#SVGID_46_)">
		<text transform="matrix(1 0 0 1 137.05 45.5)" fill="#FFFFFF" font-family="'CamingoCode-Bold'" font-size="10">k</text>
	</g>
</g>
<g>
	<defs>
		<rect id="SVGID_47_" y="52" width="20.5" height="22"/>
	</defs>
	<clipPath id="SVGID_48_">
		<use xlink:href="#SVGID_47_"  overflow="visible"/>
	</clipPath>
	<g clip-path="url(#SVGID_48_)">
		<text transform="matrix(1 0 0 1 4 67.5)" font-family="'CamingoCode-Bold'" font-size="10">P3</text>
	</g>
</g>
<g>
	<defs>
		<rect id="SVGID_49_" x="64.2" y="52" width="21.6" height="22"/>
	</defs>
	<clipPath id="SVGID_50_">
		<use xlink:href="#SVGID_49_"  overflow="visible"/>
	</clipPath>
	<g clip-path="url(#SVGID_50_)">
		<text transform="matrix(1 0 0 1 72.25 67.5)" fill="#FFFFFF" font-family="'CamingoCode-Bold'" font-size="10">n</text>
	</g>
</g>
<g>
	<defs>
		<rect id="SVGID_51_" x="85.8" y="52" width="21.6" height="22"/>
	</defs>
	<clipPath id="SVGID_52_">
		<use xlink:href="#SVGID_51_"  overflow="visible"/>
	</clipPath>
	<g clip-path="url(#SVGID_52_)">
		<text transform="matrix(1 0 0 1 93.85 67.5)" fill="#FFFFFF" font-family="'CamingoCode-Bold'" font-size="10">r</text>
	</g>
</g>
<g>
	<defs>
		<rect id="SVGID_53_" x="107.4" y="52" width="21.6" height="22"/>
	</defs>
	<clipPath id="SVGID_54_">
		<use xlink:href="#SVGID_53_"  overflow="visible"/>
	</clipPath>
	<g clip-path="url(#SVGID_54_)">
		<text transform="matrix(1 0 0 1 115.45 67.5)" fill="#FFFFFF" font-family="'CamingoCode-Bold'" font-size="10">r</text>
	</g>
</g>
<g>
	<defs>
		<rect id="SVGID_55_" x="129" y="52" width="21.6" height="22"/>
	</defs>
	<clipPath id="SVGID_56_">
		<use xlink:href="#SVGID_55_"  overflow="visible"/>
	</clipPath>
	<g clip-path="url(#SVGID_56_)">
		<text transform="matrix(1 0 0 1 137.05 67.5)" fill="#FFFFFF" font-family="'CamingoCode-Bold'" font-size="10">r</text>
	</g>
</g>
<g>
	<defs>
		<rect id="SVGID_57_" x="150.6" y="52" width="21.6" height="22"/>
	</defs>
	<clipPath id="SVGID_58_">
		<use xlink:href="#SVGID_57_"  overflow="visible"/>
	</clipPath>
	<g clip-path="url(#SVGID_58_)">
		<text transform="matrix(1 0 0 1 158.65 67.5)" fill="#FFFFFF" font-family="'CamingoCode-Bold'" font-size="10">e</text>
	</g>
</g>
<g>
	<defs>
		<rect id="SVGID_59_" x="172.2" y="52" width="21.6" height="22"/>
	</defs>
	<clipPath id="SVGID_60_">
		<use xlink:href="#SVGID_59_"  overflow="visible"/>
	</clipPath>
	<g clip-path="url(#SVGID_60_)">
		<text transform="matrix(1 0 0 1 180.25 67.5)" fill="#FFFFFF" font-family="'CamingoCode-Bold'" font-size="10">b</text>
	</g>
</g>
<g>
	<defs>
		<rect id="SVGID_61_" x="193.8" y="52" width="21.6" height="22"/>
	</defs>
	<clipPath id="SVGID_62_">
		<use xlink:href="#SVGID_61_"  overflow="visible"/>
	</clipPath>
	<g clip-path="url(#SVGID_62_)">
		<text transform="matrix(1 0 0 1 201.85 67.5)" fill="#FFFFFF" font-family="'CamingoCode-Bold'" font-size="10">b</text>
	</g>
</g>
<g>
	<defs>
		<rect id="SVGID_63_" x="215.4" y="52" width="21.6" height="22"/>
	</defs>
	<clipPath id="SVGID_64_">
		<use xlink:href="#SVGID_63_"  overflow="visible"/>
	</clipPath>
	<g clip-path="url(#SVGID_64_)">
		<text transform="matrix(1 0 0 1 223.45 67.5)" fill="#FFFFFF" font-family="'CamingoCode-Bold'" font-size="10">w</text>
	</g>
</g>
<g>
	<defs>
		<rect id="SVGID_65_" x="237" y="52" width="21.6" height="22"/>
	</defs>
	<clipPath id="SVGID_66_">
		<use xlink:href="#SVGID_65_"  overflow="visible"/>
	</clipPath>
	<g clip-path="url(#SVGID_66_)">
		<text transform="matrix(1 0 0 1 245.05 67.5)" fill="#FFFFFF" font-family="'CamingoCode-Bold'" font-size="10">w</text>
	</g>
</g>
<g>
	<defs>
		<rect id="SVGID_67_" x="258.6" y="52" width="21.6" height="22"/>
	</defs>
	<clipPath id="SVGID_68_">
		<use xlink:href="#SVGID_67_"  overflow="visible"/>
	</clipPath>
	<g clip-path="url(#SVGID_68_)">
		<text transform="matrix(1 0 0 1 266.65 67.5)" fill="#FFFFFF" font-family="'CamingoCode-Bold'" font-size="10">w</text>
	</g>
</g>
<g>
	<defs>
		<rect id="SVGID_69_" x="280.2" y="52" width="21.6" height="22"/>
	</defs>
	<clipPath id="SVGID_70_">
		<use xlink:href="#SVGID_69_"  overflow="visible"/>
	</clipPath>
	<g clip-path="url(#SVGID_70_)">
		<text transform="matrix(1 0 0 1 288.25 67.5)" fill="#FFFFFF" font-family="'CamingoCode-Bold'" font-size="10">w</text>
	</g>
</g>
<g>
	<defs>
		<rect id="SVGID_71_" x="301.8" y="52" width="21.6" height="22"/>
	</defs>
	<clipPath id="SVGID_72_">
		<use xlink:href="#SVGID_71_"  overflow="visible"/>
	</clipPath>
	<g clip-path="url(#SVGID_72_)">
		<text transform="matrix(1 0 0 1 309.85 67.5)" fill="#FFFFFF" font-family="'CamingoCode-Bold'" font-size="10">w</text>
	</g>
</g>
<g>
	<defs>
		<rect id="SVGID_73_" x="323.4" y="52" width="21.6" height="22"/>
	</defs>
	<clipPath id="SVGID_74_">
		<use xlink:href="#SVGID_73_"  overflow="visible"/>
	</clipPath>
	<g clip-path="url(#SVGID_74_)">
		<text transform="matrix(1 0 0 1 331.45 67.5)" fill="#FFFFFF" font-family="'CamingoCode-Bold'" font-size="10">r</text>
	</g>
</g>
<g>
	<defs>
		<rect id="SVGID_75_" x="345" y="52" width="21.6" height="22"/>
	</defs>
	<clipPath id="SVGID_76_">
		<use xlink:href="#SVGID_75_"  overflow="visible"/>
	</clipPath>
	<g clip-path="url(#SVGID_76_)">
		<text transform="matrix(1 0 0 1 353.05 67.5)" fill="#FFFFFF" font-family="'CamingoCode-Bold'" font-size="10">e</text>
	</g>
</g>
<g>
	<defs>
		<rect id="SVGID_77_" x="366.6" y="52" width="21.6" height="22"/>
	</defs>
	<clipPath id="SVGID_78_">
		<use xlink:href="#SVGID_77_"  overflow="visible"/>
	</clipPath>
	<g clip-path="url(#SVGID_78_)">
		<text transform="matrix(1 0 0 1 374.65 67.5)" fill="#FFFFFF" font-family="'CamingoCode-Bold'" font-size="10">e</text>
	</g>
</g>
<g>
	<defs>
		<rect id="SVGID_79_" x="388.2" y="52" width="21.6" height="22"/>
	</defs>
	<clipPath id="SVGID_80_">
		<use xlink:href="#SVGID_79_"  overflow="visible"/>
	</clipPath>
	<g clip-path="url(#SVGID_80_)">
		<text transform="matrix(1 0 0 1 396.25 67.5)" fill="#FFFFFF" font-family="'CamingoCode-Bold'" font-size="10">e</text>
	</g>
</g>
<g>
	<defs>
		<rect id="SVGID_81_" x="409.8" y="52" width="21.6" height="22"/>
	</defs>
	<clipPath id="SVGID_82_">
		<use xlink:href="#SVGID_81_"  overflow="visible"/>
	</clipPath>
	<g clip-path="url(#SVGID_82_)">
		<text transform="matrix(1 0 0 1 417.85 67.5)" fill="#FFFFFF" font-family="'CamingoCode-Bold'" font-size="10">t</text>
	</g>
</g>
<g>
	<defs>
		<rect id="SVGID_83_" y="74" width="20.5" height="22.5"/>
	</defs>
	<clipPath id="SVGID_84_">
		<use xlink:href="#SVGID_83_"  overflow="visible"/>
	</clipPath>
	<g clip-path="url(#SVGID_84_)">
		<text transform="matrix(1 0 0 1 4 89.5)" font-family="'CamingoCode-Bold'" font-size="10">P4</text>
	</g>
</g>
<g>
	<defs>
		<rect id="SVGID_85_" x="85.8" y="74" width="21.6" height="22"/>
	</defs>
	<clipPath id="SVGID_86_">
		<use xlink:href="#SVGID_85_"  overflow="visible"/>
	</clipPath>
	<g clip-path="url(#SVGID_86_)">
		<text transform="matrix(1 0 0 1 93.85 89.5)" fill="#FFFFFF" font-family="'CamingoCode-Bold'" font-size="10">n</text>
	</g>
</g>
<g>
	<defs>
		<rect id="SVGID_87_" x="107.4" y="74" width="21.6" height="22"/>
	</defs>
	<clipPath id="SVGID_88_">
		<use xlink:href="#SVGID_87_"  overflow="visible"/>
	</clipPath>
	<g clip-path="url(#SVGID_88_)">
		<text transform="matrix(1 0 0 1 115.45 89.5)" fill="#FFFFFF" font-family="'CamingoCode-Bold'" font-size="10">r</text>
	</g>
</g>
<g>
	<defs>
		<rect id="SVGID_89_" x="129" y="74" width="21.6" height="22"/>
	</defs>
	<clipPath id="SVGID_90_">
		<use xlink:href="#SVGID_89_"  overflow="visible"/>
	</clipPath>
	<g clip-path="url(#SVGID_90_)">
		<text transform="matrix(1 0 0 1 137.05 89.5)" fill="#FFFFFF" font-family="'CamingoCode-Bold'" font-size="10">r</text>
	</g>
</g>
<g>
	<defs>
		<rect id="SVGID_91_" x="150.6" y="74" width="21.6" height="22"/>
	</defs>
	<clipPath id="SVGID_92_">
		<use xlink:href="#SVGID_91_"  overflow="visible"/>
	</clipPath>
	<g clip-path="url(#SVGID_92_)">
		<text transform="matrix(1 0 0 1 158.65 89.5)" fill="#FFFFFF" font-family="'CamingoCode-Bold'" font-size="10">r</text>
	</g>
</g>
<g>
	<defs>
		<rect id="SVGID_93_" x="172.2" y="74" width="21.6" height="22"/>
	</defs>
	<clipPath id="SVGID_94_">
		<use xlink:href="#SVGID_93_"  overflow="visible"/>
	</clipPath>
	<g clip-path="url(#SVGID_94_)">
		<text transform="matrix(1 0 0 1 180.25 89.5)" fill="#FFFFFF" font-family="'CamingoCode-Bold'" font-size="10">r</text>
	</g>
</g>
<g>
	<defs>
		<rect id="SVGID_95_" x="193.8" y="74" width="21.6" height="22"/>
	</defs>
	<clipPath id="SVGID_96_">
		<use xlink:href="#SVGID_95_"  overflow="visible"/>
	</clipPath>
	<g clip-path="url(#SVGID_96_)">
		<text transform="matrix(1 0 0 1 201.85 89.5)" fill="#FFFFFF" font-family="'CamingoCode-Bold'" font-size="10">r</text>
	</g>
</g>
<g>
	<defs>
		<rect id="SVGID_97_" x="215.4" y="74" width="21.6" height="22"/>
	</defs>
	<clipPath id="SVGID_98_">
		<use xlink:href="#SVGID_97_"  overflow="visible"/>
	</clipPath>
	<g clip-path="url(#SVGID_98_)">
		<text transform="matrix(1 0 0 1 223.45 89.5)" fill="#FFFFFF" font-family="'CamingoCode-Bold'" font-size="10">r</text>
	</g>
</g>
<g>
	<defs>
		<rect id="SVGID_99_" x="237" y="74" width="21.6" height="22"/>
	</defs>
	<clipPath id="SVGID_100_">
		<use xlink:href="#SVGID_99_"  overflow="visible"/>
	</clipPath>
	<g clip-path="url(#SVGID_100_)">
		<text transform="matrix(1 0 0 1 245.05 89.5)" fill="#FFFFFF" font-family="'CamingoCode-Bold'" font-size="10">r</text>
	</g>
</g>
<g>
	<defs>
		<rect id="SVGID_101_" x="258.6" y="74" width="21.6" height="22"/>
	</defs>
	<clipPath id="SVGID_102_">
		<use xlink:href="#SVGID_101_"  overflow="visible"/>
	</clipPath>
	<g clip-path="url(#SVGID_102_)">
		<text transform="matrix(1 0 0 1 266.65 89.5)" fill="#FFFFFF" font-family="'CamingoCode-Bold'" font-size="10">r</text>
	</g>
</g>
<g>
	<defs>
		<rect id="SVGID_103_" x="280.2" y="74" width="21.6" height="22"/>
	</defs>
	<clipPath id="SVGID_104_">
		<use xlink:href="#SVGID_103_"  overflow="visible"/>
	</clipPath>
	<g clip-path="url(#SVGID_104_)">
		<text transform="matrix(1 0 0 1 288.25 89.5)" fill="#FFFFFF" font-family="'CamingoCode-Bold'" font-size="10">r</text>
	</g>
</g>
<g>
	<defs>
		<rect id="SVGID_105_" x="301.8" y="74" width="21.6" height="22"/>
	</defs>
	<clipPath id="SVGID_106_">
		<use xlink:href="#SVGID_105_"  overflow="visible"/>
	</clipPath>
	<g clip-path="url(#SVGID_106_)">
		<text transform="matrix(1 0 0 1 309.85 89.5)" fill="#FFFFFF" font-family="'CamingoCode-Bold'" font-size="10">r</text>
	</g>
</g>
<g>
	<defs>
		<rect id="SVGID_107_" x="323.4" y="74" width="21.6" height="22"/>
	</defs>
	<clipPath id="SVGID_108_">
		<use xlink:href="#SVGID_107_"  overflow="visible"/>
	</clipPath>
	<g clip-path="url(#SVGID_108_)">
		<text transform="matrix(1 0 0 1 331.45 89.5)" fill="#FFFFFF" font-family="'CamingoCode-Bold'" font-size="10">r</text>
	</g>
</g>
<g>
	<defs>
		<rect id="SVGID_109_" x="345" y="74" width="21.6" height="22"/>
	</defs>
	<clipPath id="SVGID_110_">
		<use xlink:href="#SVGID_109_"  overflow="visible"/>
	</clipPath>
	<g clip-path="url(#SVGID_110_)">
		<text transform="matrix(1 0 0 1 353.05 89.5)" fill="#FFFFFF" font-family="'CamingoCode-Bold'" font-size="10">r</text>
	</g>
</g>
<g>
	<defs>
		<rect id="SVGID_111_" x="366.6" y="74" width="21.6" height="22"/>
	</defs>
	<clipPath id="SVGID_112_">
		<use xlink:href="#SVGID_111_"  overflow="visible"/>
	</clipPath>
	<g clip-path="url(#SVGID_112_)">
		<text transform="matrix(1 0 0 1 374.65 89.5)" fill="#FFFFFF" font-family="'CamingoCode-Bold'" font-size="10">r</text>
	</g>
</g>
<g>
	<defs>
		<rect id="SVGID_113_" x="388.2" y="74" width="21.6" height="22"/>
	</defs>
	<clipPath id="SVGID_114_">
		<use xlink:href="#SVGID_113_"  overflow="visible"/>
	</clipPath>
	<g clip-path="url(#SVGID_114_)">
		<text transform="matrix(1 0 0 1 396.25 89.5)" fill="#FFFFFF" font-family="'CamingoCode-Bold'" font-size="10">r</text>
	</g>
</g>
<g>
	<defs>
		<rect id="SVGID_115_" x="409.8" y="74" width="21.6" height="22"/>
	</defs>
	<clipPath id="SVGID_116_">
		<use xlink:href="#SVGID_115_"  overflow="visible"/>
	</clipPath>
	<g clip-path="url(#SVGID_116_)">
		<text transform="matrix(1 0 0 1 417.85 89.5)" fill="#FFFFFF" font-family="'CamingoCode-Bold'" font-size="10">r</text>
	</g>
</g>
<g>
	<defs>
		<rect id="SVGID_117_" x="431.4" y="74" width="21.6" height="22"/>
	</defs>
	<clipPath id="SVGID_118_">
		<use xlink:href="#SVGID_117_"  overflow="visible"/>
	</clipPath>
	<g clip-path="url(#SVGID_118_)">
		<text transform="matrix(1 0 0 1 439.45 89.5)" fill="#FFFFFF" font-family="'CamingoCode-Bold'" font-size="10">e</text>
	</g>
</g>
<g>
	<defs>
		<rect id="SVGID_119_" x="453" y="74" width="21.6" height="22"/>
	</defs>
	<clipPath id="SVGID_120_">
		<use xlink:href="#SVGID_119_"  overflow="visible"/>
	</clipPath>
	<g clip-path="url(#SVGID_120_)">
		<text transform="matrix(1 0 0 1 461.05 89.5)" fill="#FFFFFF" font-family="'CamingoCode-Bold'" font-size="10">e</text>
	</g>
</g>
<g>
	<defs>
		<rect id="SVGID_121_" x="474.6" y="74" width="21.6" height="22"/>
	</defs>
	<clipPath id="SVGID_122_">
		<use xlink:href="#SVGID_121_"  overflow="visible"/>
	</clipPath>
	<g clip-path="url(#SVGID_122_)">
		<text transform="matrix(1 0 0 1 482.65 89.5)" fill="#FFFFFF" font-family="'CamingoCode-Bold'" font-size="10">e</text>
	</g>
</g>
<g>
	<defs>
		<rect id="SVGID_123_" x="496.2" y="74" width="21.6" height="22"/>
	</defs>
	<clipPath id="SVGID_124_">
		<use xlink:href="#SVGID_123_"  overflow="visible"/>
	</clipPath>
	<g clip-path="url(#SVGID_124_)">
		<text transform="matrix(1 0 0 1 504.25 89.5)" fill="#FFFFFF" font-family="'CamingoCode-Bold'" font-size="10">e</text>
	</g>
</g>
<g>
	<defs>
		<rect id="SVGID_125_" x="517.8" y="74" width="21.6" height="22"/>
	</defs>
	<clipPath id="SVGID_126_">
		<use xlink:href="#SVGID_125_"  overflow="visible"/>
	</clipPath>
	<g clip-path="url(#SVGID_126_)">
		<text transform="matrix(1 0 0 1 525.85 89.5)" fill="#FFFFFF" font-family="'CamingoCode-Bold'" font-size="10">e</text>
	</g>
</g>
<g>
	<defs>
		<rect id="SVGID_127_" x="539.4" y="74" width="21.6" height="22"/>
	</defs>
	<clipPath id="SVGID_128_">
		<use xlink:href="#SVGID_127_"  overflow="visible"/>
	</clipPath>
	<g clip-path="url(#SVGID_128_)">
		<text transform="matrix(1 0 0 1 547.45 89.5)" fill="#FFFFFF" font-family="'CamingoCode-Bold'" font-size="10">t</text>
	</g>
</g>
<g>
	<defs>
		<rect id="SVGID_129_" x="21" y="97" width="21.6" height="22"/>
	</defs>
	<clipPath id="SVGID_130_">
		<use xlink:href="#SVGID_129_"  overflow="visible"/>
	</clipPath>
	<g clip-path="url(#SVGID_130_)">
		<text transform="matrix(1 0 0 1 33.1 112.5)" font-family="'CamingoCode-Bold'" font-size="10">0</text>
	</g>
</g>
<g>
	<defs>
		<rect id="SVGID_131_" x="42.6" y="97" width="21.6" height="22"/>
	</defs>
	<clipPath id="SVGID_132_">
		<use xlink:href="#SVGID_131_"  overflow="visible"/>
	</clipPath>
	<g clip-path="url(#SVGID_132_)">
		<text transform="matrix(1 0 0 1 54.7 112.5)" font-family="'CamingoCode-Bold'" font-size="10">1</text>
	</g>
</g>
<g>
	<defs>
		<rect id="SVGID_133_" x="64.2" y="97" width="21.6" height="22"/>
	</defs>
	<clipPath id="SVGID_134_">
		<use xlink:href="#SVGID_133_"  overflow="visible"/>
	</clipPath>
	<g clip-path="url(#SVGID_134_)">
		<text transform="matrix(1 0 0 1 76.3 112.5)" font-family="'CamingoCode-Bold'" font-size="10">2</text>
	</g>
</g>
<g>
	<defs>
		<rect id="SVGID_135_" x="85.8" y="97" width="21.6" height="22"/>
	</defs>
	<clipPath id="SVGID_136_">
		<use xlink:href="#SVGID_135_"  overflow="visible"/>
	</clipPath>
	<g clip-path="url(#SVGID_136_)">
		<text transform="matrix(1 0 0 1 97.9 112.5)" font-family="'CamingoCode-Bold'" font-size="10">3</text>
	</g>
</g>
<g>
	<defs>
		<rect id="SVGID_137_" x="107.4" y="97" width="21.6" height="22"/>
	</defs>
	<clipPath id="SVGID_138_">
		<use xlink:href="#SVGID_137_"  overflow="visible"/>
	</clipPath>
	<g clip-path="url(#SVGID_138_)">
		<text transform="matrix(1 0 0 1 119.5 112.5)" font-family="'CamingoCode-Bold'" font-size="10">4</text>
	</g>
</g>
<g>
	<defs>
		<rect id="SVGID_139_" x="129" y="97" width="21.6" height="22"/>
	</defs>
	<clipPath id="SVGID_140_">
		<use xlink:href="#SVGID_139_"  overflow="visible"/>
	</clipPath>
	<g clip-path="url(#SVGID_140_)">
		<text transform="matrix(1 0 0 1 141.1 112.5)" font-family="'CamingoCode-Bold'" font-size="10">5</text>
	</g>
</g>
<g>
	<defs>
		<rect id="SVGID_141_" x="150.6" y="97" width="21.6" height="22"/>
	</defs>
	<clipPath id="SVGID_142_">
		<use xlink:href="#SVGID_141_"  overflow="visible"/>
	</clipPath>
	<g clip-path="url(#SVGID_142_)">
		<text transform="matrix(1 0 0 1 162.7 112.5)" font-family="'CamingoCode-Bold'" font-size="10">6</text>
	</g>
</g>
<g>
	<defs>
		<rect id="SVGID_143_" x="172.2" y="97" width="21.6" height="22"/>
	</defs>
	<clipPath id="SVGID_144_">
		<use xlink:href="#SVGID_143_"  overflow="visible"/>
	</clipPath>
	<g clip-path="url(#SVGID_144_)">
		<text transform="matrix(1 0 0 1 184.3 112.5)" font-family="'CamingoCode-Bold'" font-size="10">7</text>
	</g>
</g>
<g>
	<defs>
		<rect id="SVGID_145_" x="193.8" y="97" width="21.6" height="22"/>
	</defs>
	<clipPath id="SVGID_146_">
		<use xlink:href="#SVGID_145_"  overflow="visible"/>
	</clipPath>
	<g clip-path="url(#SVGID_146_)">
		<text transform="matrix(1 0 0 1 205.9 112.5)" font-family="'CamingoCode-Bold'" font-size="10">8</text>
	</g>
</g>
<g>
	<defs>
		<rect id="SVGID_147_" x="215.4" y="97" width="21.6" height="22"/>
	</defs>
	<clipPath id="SVGID_148_">
		<use xlink:href="#SVGID_147_"  overflow="visible"/>
	</clipPath>
	<g clip-path="url(#SVGID_148_)">
		<text transform="matrix(1 0 0 1 227.5 112.5)" font-family="'CamingoCode-Bold'" font-size="10">9</text>
	</g>
</g>
<g>
	<defs>
		<rect id="SVGID_149_" x="237" y="97" width="21.6" height="22"/>
	</defs>
	<clipPath id="SVGID_150_">
		<use xlink:href="#SVGID_149_"  overflow="visible"/>
	</clipPath>
	<g clip-path="url(#SVGID_150_)">
		<text transform="matrix(1 0 0 1 243.6 112.5)" font-family="'CamingoCode-Bold'" font-size="10">10</text>
	</g>
</g>
<g>
	<defs>
		<rect id="SVGID_151_" x="258.6" y="97" width="21.6" height="22"/>
	</defs>
	<clipPath id="SVGID_152_">
		<use xlink:href="#SVGID_151_"  overflow="visible"/>
	</clipPath>
	<g clip-path="url(#SVGID_152_)">
		<text transform="matrix(1 0 0 1 265.2 112.5)" font-family="'CamingoCode-Bold'" font-size="10">11</text>
	</g>
</g>
<g>
	<defs>
		<rect id="SVGID_153_" x="280.2" y="97" width="21.6" height="22"/>
	</defs>
	<clipPath id="SVGID_154_">
		<use xlink:href="#SVGID_153_"  overflow="visible"/>
	</clipPath>
	<g clip-path="url(#SVGID_154_)">
		<text transform="matrix(1 0 0 1 286.8 112.5)" font-family="'CamingoCode-Bold'" font-size="10">12</text>
	</g>
</g>
<g>
	<defs>
		<rect id="SVGID_155_" x="301.8" y="97" width="21.6" height="22"/>
	</defs>
	<clipPath id="SVGID_156_">
		<use xlink:href="#SVGID_155_"  overflow="visible"/>
	</clipPath>
	<g clip-path="url(#SVGID_156_)">
		<text transform="matrix(1 0 0 1 308.4 112.5)" font-family="'CamingoCode-Bold'" font-size="10">13</text>
	</g>
</g>
<g>
	<defs>
		<rect id="SVGID_157_" x="323.4" y="97" width="21.6" height="22"/>
	</defs>
	<clipPath id="SVGID_158_">
		<use xlink:href="#SVGID_157_"  overflow="visible"/>
	</clipPath>
	<g clip-path="url(#SVGID_158_)">
		<text transform="matrix(1 0 0 1 330 112.5)" font-family="'CamingoCode-Bold'" font-size="10">14</text>
	</g>
</g>
<g>
	<defs>
		<rect id="SVGID_159_" x="345" y="97" width="21.6" height="22"/>
	</defs>
	<clipPath id="SVGID_160_">
		<use xlink:href="#SVGID_159_"  overflow="visible"/>
	</clipPath>
	<g clip-path="url(#SVGID_160_)">
		<text transform="matrix(1 0 0 1 351.6 112.5)" font-family="'CamingoCode-Bold'" font-size="10">15</text>
	</g>
</g>
<g>
	<defs>
		<rect id="SVGID_161_" x="366.6" y="97" width="21.6" height="22"/>
	</defs>
	<clipPath id="SVGID_162_">
		<use xlink:href="#SVGID_161_"  overflow="visible"/>
	</clipPath>
	<g clip-path="url(#SVGID_162_)">
		<text transform="matrix(1 0 0 1 373.2 112.5)" font-family="'CamingoCode-Bold'" font-size="10">16</text>
	</g>
</g>
<g>
	<defs>
		<rect id="SVGID_163_" x="388.2" y="97" width="21.6" height="22"/>
	</defs>
	<clipPath id="SVGID_164_">
		<use xlink:href="#SVGID_163_"  overflow="visible"/>
	</clipPath>
	<g clip-path="url(#SVGID_164_)">
		<text transform="matrix(1 0 0 1 394.8 112.5)" font-family="'CamingoCode-Bold'" font-size="10">17</text>
	</g>
</g>
<g>
	<defs>
		<rect id="SVGID_165_" x="409.8" y="97" width="21.6" height="22"/>
	</defs>
	<clipPath id="SVGID_166_">
		<use xlink:href="#SVGID_165_"  overflow="visible"/>
	</clipPath>
	<g clip-path="url(#SVGID_166_)">
		<text transform="matrix(1 0 0 1 416.4 112.5)" font-family="'CamingoCode-Bold'" font-size="10">18</text>
	</g>
</g>
<g>
	<defs>
		<rect id="SVGID_167_" x="431.4" y="97" width="21.6" height="22"/>
	</defs>
	<clipPath id="SVGID_168_">
		<use xlink:href="#SVGID_167_"  overflow="visible"/>
	</clipPath>
	<g clip-path="url(#SVGID_168_)">
		<text transform="matrix(1 0 0 1 438 112.5)" font-family="'CamingoCode-Bold'" font-size="10">19</text>
	</g>
</g>
<g>
	<defs>
		<rect id="SVGID_169_" x="453" y="97" width="21.6" height="22"/>
	</defs>
	<clipPath id="SVGID_170_">
		<use xlink:href="#SVGID_169_"  overflow="visible"/>
	</clipPath>
	<g clip-path="url(#SVGID_170_)">
		<text transform="matrix(1 0 0 1 459.6 112.5)" font-family="'CamingoCode-Bold'" font-size="10">20</text>
	</g>
</g>
<g>
	<defs>
		<rect id="SVGID_171_" x="474.6" y="97" width="21.6" height="22"/>
	</defs>
	<clipPath id="SVGID_172_">
		<use xlink:href="#SVGID_171_"  overflow="visible"/>
	</clipPath>
	<g clip-path="url(#SVGID_172_)">
		<text transform="matrix(1 0 0 1 481.2 112.5)" font-family="'CamingoCode-Bold'" font-size="10">21</text>
	</g>
</g>
<g>
	<defs>
		<rect id="SVGID_173_" x="496.2" y="97" width="21.6" height="22"/>
	</defs>
	<clipPath id="SVGID_174_">
		<use xlink:href="#SVGID_173_"  overflow="visible"/>
	</clipPath>
	<g clip-path="url(#SVGID_174_)">
		<text transform="matrix(1 0 0 1 502.8 112.5)" font-family="'CamingoCode-Bold'" font-size="10">22</text>
	</g>
</g>
<g>
	<defs>
		<rect id="SVGID_175_" x="517.8" y="97" width="21.6" height="22"/>
	</defs>
	<clipPath id="SVGID_176_">
		<use xlink:href="#SVGID_175_"  overflow="visible"/>
	</clipPath>
	<g clip-path="url(#SVGID_176_)">
		<text transform="matrix(1 0 0 1 524.4 112.5)" font-family="'CamingoCode-Bold'" font-size="10">23</text>
	</g>
</g>
<g>
	<defs>
		<rect id="SVGID_177_" x="539.4" y="97" width="21.6" height="22"/>
	</defs>
	<clipPath id="SVGID_178_">
		<use xlink:href="#SVGID_177_"  overflow="visible"/>
	</clipPath>
	<g clip-path="url(#SVGID_178_)">
		<text transform="matrix(1 0 0 1 546 112.5)" font-family="'CamingoCode-Bold'" font-size="10">24</text>
	</g>
</g>
<g>
	<defs>
		<rect id="SVGID_179_" x="-1" y="-1" width="572" height="121"/>
	</defs>
	<clipPath id="SVGID_180_">
		<use xlink:href="#SVGID_179_"  overflow="visible"/>
	</clipPath>
	<line clip-path="url(#SVGID_180_)" fill="none" stroke="#000000" x1="20.5" y1="96.5" x2="539.4" y2="96.5"/>
	<line clip-path="url(#SVGID_180_)" fill="none" stroke="#000000" x1="539.4" y1="96.5" x2="569" y2="96.5"/>
	<line clip-path="url(#SVGID_180_)" fill="none" stroke="#000000" x1="21" y1="0" x2="21" y2="30"/>
	<line clip-path="url(#SVGID_180_)" fill="none" stroke="#000000" x1="21" y1="30" x2="21" y2="74"/>
	<line clip-path="url(#SVGID_180_)" fill="none" stroke="#000000" x1="21" y1="74" x2="21" y2="97"/>
</g>
</svg>
